<svg width="961" height="1024" viewBox="0 0 961 1024" fill="none" xmlns="http://www.w3.org/2000/svg">
<path d="M586.589 0.684372C586.452 1.16148 584.612 9.06787 582.499 18.2693C580.454 27.4707 578.41 36.195 578.069 37.6945C577.66 39.194 576.637 43.9651 575.615 48.2591C574.661 52.5531 573.298 58.551 572.616 61.55C571.117 67.8206 565.051 94.675 563.483 101.764C562.801 104.831 562.665 106.739 563.142 107.284C563.483 107.693 566.414 108.579 569.617 109.193C577.864 110.829 598.448 116.554 609.422 120.303C641.729 131.14 671.105 145.181 698.982 162.902C704.162 166.173 708.661 168.695 709.07 168.491C709.41 168.286 712.546 163.72 715.954 158.471C723.247 147.225 736.81 126.301 740.286 120.78C741.581 118.735 748.261 108.375 755.145 97.7422C761.961 87.1094 767.55 78.1125 767.55 77.7036C767.55 76.3404 745.671 62.6405 725.768 51.5988C684.873 28.7657 642.547 12.2713 600.016 2.59282C586.657 -0.474319 586.998 -0.406158 586.589 0.684372Z" fill="black"/>
<path d="M522.52 29.9928C522.315 30.4699 522.247 44.3742 522.315 60.8686L522.52 90.8584L524.905 91.0628C526.2 91.1992 532.471 92.0171 538.878 92.9031C547.943 94.1981 550.601 94.4026 551.214 93.721C551.623 93.3121 552.646 89.9723 553.395 86.4281C554.213 82.8838 556.122 74.5685 557.621 68.0253C562.733 46.0782 564.028 39.7395 564.096 37.0131V34.3549L559.325 33.4689C551.964 32.1739 545.83 31.2878 535.811 30.1973C524.564 28.9704 522.929 28.9704 522.52 29.9928Z" fill="black"/>
<path d="M423.349 30.1971C422.804 30.3334 419.6 30.8105 416.192 31.2194C372.707 36.9448 327.723 49.5541 287.713 67.139C156.985 124.665 58.5643 236.649 18.8279 373.035C15.8971 383.054 10.1036 406.16 9.35386 410.863C9.14939 412.158 8.05885 418.292 6.90016 424.494C-0.938078 467.98 -2.16493 519.985 3.56039 566.878C4.8554 577.987 5.26435 580.509 8.53596 598.299C14.125 629.038 26.3253 668.366 39.6163 698.492C45.2734 711.306 46.364 713.487 47.4545 713.487C48.6814 713.487 100.959 685.201 100.959 684.519C100.959 684.383 100.005 682.202 98.8461 679.612C79.0801 636.059 66.0618 584.735 62.7902 537.638C61.9041 524.892 61.9041 489.041 62.7902 476.295C69.8105 375.897 114.659 279.248 187.043 208.704C251.112 146.271 329.495 107.012 416.874 93.5845C420.623 93.0392 424.371 92.3577 425.257 92.2214L426.757 91.8806V61.9589C426.757 45.4646 426.552 31.5602 426.348 30.9468C425.939 29.9244 425.53 29.7881 423.349 30.1971Z" fill="black"/>
<path d="M452.385 48.2593C446.796 48.6 441.752 49.0772 441.275 49.2135C440.525 49.5543 440.389 52.3488 440.525 63.3905C440.661 72.1147 441.002 77.1585 441.411 77.0903C446.455 76.2724 479.512 75.4545 492.394 75.8635L508.547 76.3406V62.7089C508.547 52.9622 508.343 48.8727 507.729 48.5319C506.571 47.7821 464.04 47.5777 452.385 48.2593Z" fill="black"/>
<path d="M757.871 118.258C757.326 118.94 752.691 125.892 747.647 133.798C742.603 141.636 735.651 152.474 732.175 157.858C728.699 163.174 726.109 167.877 726.314 168.218C726.654 168.832 734.493 174.966 742.263 180.828C747.579 184.781 763.664 199.094 772.252 207.409C820.986 254.78 856.496 311.692 877.966 376.783C890.03 413.248 896.233 447.805 898.482 491.085C900.05 520.121 896.983 557.54 890.508 589.779C884.237 620.723 872.786 655.961 860.518 682.066C858.473 686.36 856.905 690.313 856.974 690.858C857.178 691.812 908.297 720.302 909.796 720.302C910.751 720.302 913.341 715.463 917.566 705.785C919.134 702.309 920.906 698.287 921.588 696.788C928.54 681.452 939.445 649.827 944.762 629.515C955.599 588.279 960.438 550.179 960.438 506.966C960.438 484.542 959.825 473.705 957.371 451.144C952.396 406.092 938.764 355.791 920.429 314.418C886.759 238.558 835.504 173.875 769.458 123.847C764.551 120.166 760.188 117.099 759.711 117.099C759.302 117.099 758.416 117.645 757.871 118.258Z" fill="black"/>
<path d="M503.64 255.802C503.435 256.006 500.095 256.552 496.279 256.892C490.008 257.506 479.375 260.096 470.719 263.163C466.153 264.799 452.589 271.683 447.886 274.75C439.025 280.475 428.461 288.859 423.144 294.38C420.827 296.765 419.532 296.97 420.691 294.789C423.69 289.131 433.027 277.749 438.685 272.842C447.273 265.412 447.545 265.14 446.864 264.39C446.046 263.572 430.369 269.365 421.986 273.591C395.608 286.746 377.751 304.944 368.277 328.391C363.778 339.501 363.71 339.978 363.71 353.95C363.71 366.56 363.778 367.037 365.55 370.785C368.549 377.26 384.362 392.801 397.04 401.798C403.651 406.5 403.924 406.092 400.584 396.617C398.403 390.551 397.653 386.326 398.676 386.326C399.084 386.326 400.516 388.37 401.879 390.892C407.945 402.411 419.328 414.202 430.233 420.337C434.459 422.722 446.046 427.561 449.113 428.243C451.43 428.72 452.453 427.289 451.294 425.176C450.476 423.676 450.476 405.205 451.294 402.684C451.839 400.775 451.976 400.98 453.543 406.432C457.496 420.064 463.154 428.175 474.672 436.695C479.512 440.239 488.781 444.533 489.667 443.647C490.008 443.306 490.621 440.307 490.962 436.967C493.348 415.02 501.39 394.027 513.523 377.738C518.294 371.399 527.427 362.538 534.038 357.767C539.764 353.609 551.964 347.066 552.646 347.68C552.85 347.884 550.533 350.542 547.466 353.609C539.9 361.107 535.061 368.604 537.855 368.604C538.196 368.604 540.991 366.9 544.126 364.787C556.19 356.677 568.459 352.178 587.611 348.702C590.815 348.157 597.835 347.816 606.355 347.816C617.942 347.816 621.077 348.089 627.143 349.384C636.822 351.497 644.523 354.018 648.545 356.472C652.975 359.198 653.861 358.789 652.771 354.495C648.817 339.841 637.503 323.756 624.076 313.941C610.649 304.058 591.905 297.583 573.979 296.561C562.665 295.947 566.141 293.834 579.977 292.948C588.361 292.471 603.015 293.016 607.582 294.039C610.853 294.789 609.967 291.994 605.605 287.836C590.883 273.796 557.689 259.551 533.016 256.756C525.314 255.87 504.321 255.188 503.64 255.802Z" fill="black"/>
<path d="M586.929 355.041C585.634 355.313 581.477 356.267 577.728 357.017C573.979 357.835 570.026 358.789 568.867 359.198C563.892 360.902 550.192 366.968 547.738 368.672C546.239 369.626 543.921 370.99 542.626 371.671C534.72 375.761 518.226 390.687 510.796 400.502C504.389 409.022 499.686 418.769 498.664 425.653C497.914 430.492 498.869 430.56 505.957 426.13C512.228 422.109 514.341 421.086 524.155 416.997C528.586 415.156 532.403 414.407 532.403 415.293C532.403 415.497 530.222 417.815 527.495 420.405C523.337 424.562 522.792 425.38 523.61 426.13C526.473 428.924 549.715 423.608 568.867 415.77C578.75 411.748 596.472 402.888 608.536 396.004C620.941 388.915 624.621 387.689 633.686 387.689C637.571 387.689 641.388 387.961 642.274 388.302C643.16 388.643 644.66 389.12 645.682 389.324C648.272 389.87 653.929 394.641 657.065 398.867C659.655 402.274 662.79 408.886 663.403 411.885C663.54 412.635 664.085 413.248 664.63 413.248C666.13 413.248 666.266 407.795 665.039 398.526C662.926 382.645 654.815 371.058 640.161 363.083C634.572 360.016 630.142 358.448 622.031 356.745C619.032 356.131 615.283 355.313 613.648 354.972C610.24 354.155 590.337 354.223 586.929 355.041Z" fill="black"/>
<path d="M341.014 364.447C336.651 366.9 329.767 373.171 325.201 378.828C316.954 389.12 309.729 406.432 307.343 421.427C301.686 457.756 301.413 460.346 302.436 464.367C302.981 466.207 303.39 468.797 303.39 470.092C303.39 471.319 303.663 473.5 304.072 474.863C304.412 476.227 305.162 479.43 305.776 482.088C306.389 484.678 307.82 489.381 308.979 492.517L311.092 498.106L308.911 502.4C304.208 511.805 303.526 526.391 306.866 547.861C309.456 564.765 316.204 584.258 322.815 594.209C326.019 599.048 332.085 605.114 335.493 606.818C336.856 607.568 337.674 608.727 338.219 610.772C338.628 612.339 340.536 618.065 342.377 623.517C359.621 674.227 390.906 713.896 428.529 732.707C440.389 738.705 453.134 742.454 466.289 743.817C479.58 745.248 482.17 745.18 496.96 742.658C507.798 740.886 526.337 733.457 536.969 726.641C549.579 718.667 564.574 705.171 575.07 692.357C587.816 676.885 600.152 655.484 608.536 634.082C611.467 626.653 616.238 612.067 616.238 610.567C616.238 609.34 618.623 606.478 619.646 606.478C620.668 606.478 627.688 600.003 630.142 596.799C636.004 589.097 642.956 571.649 646.228 556.517C647.591 549.906 649.363 537.092 650.113 527.755C650.59 521.757 648.818 510.238 646.5 504.581C644.728 500.082 644.524 498.719 645.478 497.697C646.159 497.015 649.295 488.563 650.726 483.451C652.362 477.726 652.703 457.074 651.339 447.327C650.726 442.829 649.772 435.877 649.363 431.924C648.886 427.97 648.341 424.426 648.068 424.085C647.863 423.676 647.591 421.904 647.523 419.996C647.25 414.679 642.07 401.389 638.185 396.072C636.481 393.755 635.527 393.141 632.664 392.528C630.756 392.119 628.234 391.983 627.007 392.255C621.35 393.278 612.489 399.071 605.401 406.296L601.72 410.113L602.811 413.044C606.355 422.722 609.49 432.264 610.376 436.422C610.921 439.012 612.012 444.124 612.762 447.668C613.511 451.212 614.466 456.597 614.875 459.596C615.897 466.753 616.715 471.66 617.601 476.295C618.964 483.383 619.509 487.541 619.578 491.562C619.646 494.766 619.441 495.447 618.623 495.107C617.056 494.493 600.902 491.494 593.132 490.335C580.659 488.427 567.232 487.541 552.85 487.609C537.651 487.677 536.833 487.745 506.503 494.016C493.689 496.606 492.735 496.742 479.784 496.742C468.129 496.742 465.403 496.538 458.655 495.107C442.774 491.699 433.709 489.995 427.439 489.245C423.894 488.836 418.714 488.223 415.988 487.882C403.242 486.178 371.889 488.7 351.442 493.13C345.444 494.357 339.787 495.516 338.832 495.584L337.129 495.72L337.197 484.474C337.197 472.819 337.401 470.842 340.809 452.78C344.421 433.423 346.534 427.561 352.669 418.905C358.121 411.34 368.209 402.752 374.82 400.025C375.979 399.548 377.001 398.662 377.001 398.117C377.001 397.572 374.752 394.777 372.026 391.915C362.483 381.963 352.055 369.695 349.124 364.992C347.216 361.925 345.853 361.788 341.014 364.447ZM416.192 493.403C422.668 494.152 433.164 496.811 443.66 500.287C451.499 502.945 454.498 505.399 457.701 511.874C459.882 516.099 460.155 517.326 460.155 521.893C460.155 530.413 456.133 543.363 450.885 552.087C443.388 564.424 430.097 573.83 416.397 576.624C410.263 577.783 392.132 577.647 386.135 576.283C372.98 573.421 365.278 567.968 361.87 559.039C357.712 548.066 354.918 527.277 356.486 518.689C357.644 512.555 361.325 504.853 364.528 502.263C367.595 499.741 377.001 495.652 383.067 494.289C392.405 492.108 402.288 491.835 416.192 493.403ZM574.048 493.062C580.864 494.221 591.905 498.583 596.199 501.854C599.403 504.308 603.151 512.283 603.833 518.008C604.515 523.665 603.629 539.41 602.265 545.953C598.789 562.584 594.018 569.195 582.568 573.353C575.615 575.874 572.207 576.488 562.87 576.965C541.195 578.056 524.769 571.444 513.659 557.267C503.026 543.704 497.71 522.574 502.345 512.078C506.025 503.831 509.024 501.854 527.291 496.402C541.059 492.244 560.757 490.813 574.048 493.062ZM353.009 502.4C354.1 503.286 354.032 504.581 352.737 505.876C351.305 507.307 348.852 507.239 346.943 505.671C345.512 504.512 345.444 504.24 346.33 503.217C348.17 500.968 350.76 500.696 353.009 502.4ZM613.852 502.195C615.011 503.49 615.011 503.626 613.852 504.921C612.012 506.966 608.263 506.762 607.241 504.581C606.696 503.286 606.696 502.672 607.377 501.854C608.604 500.355 612.353 500.559 613.852 502.195ZM344.081 515.963C347.012 519.235 347.693 521.348 349.738 533.207C353.009 552.701 357.372 566.537 361.461 570.899C363.983 573.625 366.709 575.057 375.57 578.124C395.404 585.008 415.988 585.008 431.801 578.056C439.23 574.784 441.956 572.944 447.409 567.695C457.088 558.358 464.244 545.748 470.242 527.482C472.56 520.325 474.059 519.03 479.716 519.03C481.897 519.03 484.76 519.371 486.191 519.848C488.372 520.53 488.849 521.211 490.349 524.892C491.235 527.209 492.871 531.844 493.893 535.252C499.755 554.609 513.523 571.717 527.904 577.51C536.356 580.918 547.875 583.236 556.395 583.304C570.572 583.304 591.905 577.647 596.949 572.467C602.606 566.673 607.377 552.564 610.444 532.526C612.285 520.87 614.67 514.464 617.26 514.464C618.214 514.464 618.01 518.621 616.919 521.961C616.579 522.915 616.17 524.892 615.897 526.391L615.42 529.118L618.078 526.732C620.464 524.483 627.143 518.826 630.074 516.577C631.778 515.213 633.005 516.577 633.414 520.189C633.755 522.847 632.596 537.365 631.574 543.772C628.643 562.311 622.645 579.351 616.102 587.598C613.511 590.801 610.99 592.164 607.445 592.164C605.946 592.164 604.515 592.437 604.31 592.846C604.106 593.187 603.015 596.799 601.856 600.82C599.471 609.477 594.495 624.949 593.746 625.903C593.473 626.244 592.859 627.811 592.382 629.311C590.951 633.741 584.271 647.85 579.909 655.484C568.527 675.59 557.144 689.563 541.604 702.581C527.223 714.645 512.909 721.87 494.711 726.232C488.1 727.868 466.698 727.8 460.155 726.232C457.701 725.619 454.429 724.801 452.862 724.392C445.024 722.484 431.051 715.736 422.327 709.67C395.745 691.267 374.616 662.231 360.302 624.267C356.622 614.452 355.804 611.93 353.487 603.411C350.624 592.778 350.283 592.164 347.012 592.164C343.195 592.164 340.741 590.733 337.878 586.78C330.722 577.033 324.451 556.926 322.065 536.274C320.839 525.233 320.839 519.984 321.997 519.507C322.543 519.303 324.996 521.211 327.723 523.869C335.902 531.912 348.375 539.41 348.375 536.274C348.375 535.865 347.489 533.548 346.33 531.162C345.239 528.777 344.285 526.596 344.285 526.323C344.285 526.119 343.876 524.96 343.331 523.801C339.923 516.031 340.332 511.874 344.081 515.963Z" fill="black"/>
<path d="M86.5776 707.966C73.014 715.395 71.9916 716.077 71.7872 717.167C71.3782 719.212 87.5318 747.293 98.0964 762.902C103.822 771.353 105.594 773.466 106.821 773.466C108.116 773.466 128.359 761.607 129.109 760.38C129.926 759.221 130.063 759.426 122.293 748.248C116.295 739.591 106.616 723.71 101.095 713.487C96.5969 705.035 95.8471 703.945 94.8248 704.013C94.2795 704.013 90.5308 705.853 86.5776 707.966Z" fill="black"/>
<path d="M861.063 710.897C860.723 711.374 857.86 716.213 854.793 721.666C849.681 730.594 837.617 749.406 831.346 758.131C826.098 765.355 826.371 764.606 828.075 766.037C830.733 768.15 849.136 778.919 850.158 778.919C850.703 778.919 852.135 777.488 853.43 775.647C860.995 764.946 864.062 760.448 870.197 750.633C880.488 734.207 885.805 724.392 885.055 723.233C884.51 722.347 863.244 710.147 862.222 710.079C861.949 710.079 861.472 710.488 861.063 710.897Z" fill="black"/>
<path d="M146.966 766.446C141.718 769.24 97.8237 794.732 97.2784 795.277C95.4381 797.117 121.815 827.652 144.717 850.213C174.502 879.657 206.605 903.853 244.092 925.119C257.315 932.685 283.215 945.43 284.714 945.089C285.396 944.953 289.758 935.752 297.256 918.576C303.526 904.126 308.911 891.653 309.115 890.835C309.524 889.54 308.297 888.722 294.734 881.975C251.521 860.368 215.125 833.991 182 800.321C171.708 789.892 161.688 778.714 155.213 770.604C152.964 767.673 150.578 765.287 150.033 765.287C149.488 765.355 148.125 765.832 146.966 766.446Z" fill="black"/>
<path d="M802.515 773.943C787.247 791.596 770.549 808.84 758.212 819.746C755.486 822.131 753.236 824.312 753.236 824.585C753.236 824.994 755.69 828.266 767.141 842.988C768.708 845.033 774.434 852.394 779.75 859.346C785.135 866.298 790.042 872.023 790.655 872.16C792.291 872.432 801.356 864.458 817.169 848.849C835.504 830.787 858.882 804.137 858.882 801.411C858.882 800.593 827.12 781.032 810.421 771.558L806.536 769.377L802.515 773.943Z" fill="black"/>
<path d="M726.314 832.151C682.079 865.889 628.847 890.972 574.32 903.717C493.484 922.733 407.741 916.667 331.13 886.609C327.723 885.246 327.041 885.178 326.223 885.996C325.746 886.541 321.247 896.288 316.34 907.739C311.433 919.189 306.048 931.594 304.412 935.343C284.783 980.532 281.511 988.302 281.716 989.324C282.193 991.914 319.203 1003.98 344.626 1009.91C370.799 1015.97 398.744 1020.27 428.461 1022.72C449.181 1024.43 505.139 1024.43 524.905 1022.72C561.166 1019.52 596.608 1013.25 630.892 1003.84C674.581 991.846 720.452 972.557 755.622 951.36C758.28 949.792 761.279 948.02 762.302 947.339C772.934 941.204 805.241 918.099 805.991 916.19C806.196 915.713 800.334 907.534 792.973 898.06C785.612 888.586 776.956 877.408 773.752 873.182C750.851 843.397 736.538 825.267 735.924 825.335C735.515 825.335 731.221 828.402 726.314 832.151ZM721.475 863.027C727.95 866.843 732.789 874.477 733.334 881.906C733.743 887.495 732.789 890.358 729.313 894.584L726.655 897.856L730.608 898.264C732.993 898.469 735.652 899.287 737.083 900.173C738.446 900.991 743.831 906.239 749.147 911.76C754.395 917.349 759.439 922.12 760.257 922.324C761.143 922.529 762.302 923.688 762.915 925.051L764.074 927.368L758.485 930.503C755.486 932.207 752.759 933.639 752.487 933.639C752.078 933.639 744.853 925.937 733.811 913.6C730.812 910.26 727.473 906.989 726.314 906.239C724.201 904.944 720.52 904.535 720.52 905.626C720.52 906.58 733.47 931.73 734.629 933.094C735.174 933.707 736.538 934.457 737.628 934.661C739.537 935.07 741.65 937.251 741.65 938.751C741.65 939.5 724.201 948.634 722.77 948.634C721.406 948.634 720.248 944.68 721.134 942.772C722.292 940.25 722.156 939.773 718.407 931.799C716.499 927.777 713.773 921.984 712.341 918.985C710.024 914.077 700.073 893.493 694.416 881.906C693.052 879.044 691.553 877.067 690.122 876.249C688.35 875.227 686.441 872.569 686.441 871.206C686.441 870.728 703.208 862.754 706.548 861.595C710.637 860.232 717.93 860.914 721.475 863.027ZM685.828 881.634C690.122 890.767 690.326 892.13 687.191 892.607C686.168 892.744 685.078 892.13 683.851 890.631C678.33 884.088 675.945 882.724 673.355 884.701C672.332 885.519 672.673 886.609 676.626 895.811C679.012 901.4 681.397 906.921 681.943 908.079C682.488 909.17 683.783 912.101 684.737 914.554C685.759 917.008 686.986 919.871 687.463 921.029C687.941 922.12 689.985 926.755 691.894 931.253C700.414 951.019 699.936 950.065 702.799 951.019C705.389 951.905 707.707 954.972 706.548 955.995C705.662 956.813 690.053 963.356 687.668 963.969C686.032 964.378 685.828 964.242 685.419 962.061C685.078 960.493 685.351 958.994 686.1 957.562L687.191 955.381L678.944 934.797C674.377 923.483 668.788 909.579 666.539 903.99C661.018 890.085 661.018 890.017 660.132 890.017C659.655 890.017 658.632 890.563 657.746 891.312C656.042 892.675 655.906 894.311 656.519 901.809C656.792 905.285 656.042 906.375 653.316 906.375C652.294 906.375 651.68 905.626 650.862 903.104C650.249 901.332 648.818 897.31 647.659 894.175C646.5 891.04 645.546 888.245 645.546 887.973C645.546 887.632 646.568 887.155 647.795 886.882C652.362 885.928 673.695 877.067 677.58 874.613C678.875 873.727 680.375 873.046 680.852 873.046C681.329 872.978 683.578 876.863 685.828 881.634ZM642.002 897.583C643.229 901.127 645.001 906.035 645.955 908.556C646.841 911.146 648.34 915.304 649.295 917.962C650.249 920.552 651.748 924.778 652.634 927.3C653.589 929.89 656.588 938.342 659.382 946.248C665.721 963.969 665.653 963.901 668.243 965.06C669.606 965.673 670.56 966.696 670.833 967.923C671.378 969.831 671.174 969.967 666.13 972.285C657.746 976.102 657.746 976.102 657.337 974.534C657.133 973.784 656.86 973.171 656.724 973.171C656.588 973.171 655.293 974.329 653.861 975.761C650.113 979.509 644.387 980.532 640.025 978.214C634.027 975.147 627.62 961.516 625.439 947.271C623.054 931.935 629.12 923.824 639.752 927.913C640.707 928.322 640.366 927.027 634.709 910.192C632.051 902.422 631.505 901.332 629.801 900.718C628.029 900.037 626.462 897.787 626.462 895.879C626.462 895.061 637.708 890.699 639.071 890.972C639.48 891.108 640.775 894.039 642.002 897.583ZM362.62 908.897L371.003 910.738L370.594 928.8C370.39 938.751 369.981 949.452 369.776 952.519C369.504 955.654 369.64 958.176 369.913 958.176C370.253 958.176 373.73 948.361 377.683 936.365C381.568 924.369 384.976 914.214 385.18 913.873C385.385 913.464 388.247 913.6 392.337 914.214C404.674 915.986 403.787 915.713 403.31 918.167C403.038 919.325 402.152 921.098 401.266 922.052C399.562 923.824 399.153 925.664 396.495 946.93C395.949 951.019 394.382 963.083 392.95 973.648L390.36 992.937L391.86 994.504C393.359 996.14 393.905 1000.03 392.746 1000.77C392.201 1001.05 383.476 1000.03 375.706 998.662C373.593 998.321 373.457 998.185 373.866 996.14C374.139 994.981 375.229 993.141 376.32 992.119C377.478 991.096 378.364 989.87 378.364 989.392C378.364 988.915 379.114 983.599 380.068 977.601C381.023 971.603 383.067 958.721 384.567 948.974C385.998 939.228 387.429 930.299 387.566 929.208C387.77 928.05 382.59 942.772 376.115 961.925L364.392 996.685L362.347 996.481C358.598 996.072 358.462 995.595 358.871 985.507C359.144 980.396 359.621 966.287 360.03 954.086C360.439 941.886 360.848 930.026 360.984 927.641C361.257 923.074 360.439 922.393 359.757 926.618C359.28 929.345 358.871 931.594 354.85 950.338C347.148 986.734 347.42 984.894 348.647 987.007C349.874 989.188 350.01 991.437 349.056 992.937C348.511 993.755 347.489 993.686 341.422 992.323C337.537 991.505 334.129 990.551 333.857 990.279C332.766 989.188 334.266 985.985 336.447 984.621C337.674 983.94 338.832 982.645 339.037 981.827C339.241 981.009 340.877 974.057 342.581 966.355C344.285 958.653 345.989 951.156 346.33 949.656C347.829 943.317 350.419 932.003 352.191 923.824C353.691 916.872 353.895 914.827 353.282 913.805C352.055 911.896 352.396 907.057 353.691 907.057C353.964 907.057 357.985 907.875 362.62 908.897ZM456.883 933.98C456.747 941.477 456.542 949.656 456.406 952.178C456.133 956.881 456.542 957.699 458.178 955.722C458.723 955.109 460.427 954.018 461.995 953.337C465.812 951.701 470.651 952.451 472.9 955.041C475.49 958.04 475.899 961.311 476.308 980.123C476.649 996.754 476.853 998.458 477.944 999.48C478.762 1000.23 479.239 1001.59 479.239 1003.3V1005.89H470.378H461.518V1003.77C461.518 1002.62 462.131 1000.91 462.881 999.957C464.176 998.321 464.244 997.163 464.244 980.941C464.244 965.81 464.108 963.56 463.085 962.606C461.722 961.243 458.178 961.72 456.951 963.424C456.406 964.106 456.065 966.696 456.065 969.695C456.065 972.557 455.861 980.055 455.656 986.462C455.247 997.64 455.247 998.117 456.679 999.684C457.565 1000.71 458.11 1002.27 458.11 1003.71V1006.09L449.658 1005.75C445.023 1005.55 440.866 1005.14 440.457 1004.93C439.162 1004.11 439.639 1001.39 441.411 999.48C442.365 998.458 443.115 997.435 443.115 997.163C443.183 994.436 445.228 945.158 445.569 937.388C445.978 928.391 445.91 927.027 444.887 926.21C444.206 925.664 443.797 924.301 443.797 922.597V919.939L450.476 920.143L457.087 920.348L456.883 933.98ZM614.806 942.295C624.076 976.442 624.28 976.919 626.734 978.01C628.506 978.828 628.847 979.373 628.847 981.282C628.847 983.599 628.779 983.599 622.713 985.848C619.373 987.075 616.17 988.097 615.692 988.097C615.215 988.166 614.466 987.211 614.057 986.121L613.375 984.008L610.921 986.871C608.059 990.21 605.196 991.574 601.038 991.574C594.495 991.574 592.178 987.348 588.293 968.809C584.408 950.338 584.271 949.929 582.09 947.475C579.228 944.135 579.637 942.363 583.522 941.341C585.226 940.932 588.088 940.114 589.86 939.569C593.814 938.342 593.405 937.728 596.063 949.315C602.674 978.487 603.424 980.736 606.491 981.213C607.241 981.35 608.74 980.668 609.831 979.782L611.739 978.078L609.899 970.376C604.583 948.566 603.56 945.021 601.788 943.59C600.834 942.772 599.812 941.204 599.607 940.046L599.13 937.865L604.446 936.161C612.898 933.434 612.353 933.094 614.806 942.295ZM567.095 945.839C573.093 948.906 577.796 957.017 580.25 968.4C583.862 985.576 578.887 997.708 567.709 998.867C562.801 999.344 559.734 998.253 556.054 994.777C551.623 990.415 548.965 984.076 547.329 973.648C545.353 960.902 548.761 949.383 555.44 945.975C558.848 944.272 563.824 944.203 567.095 945.839ZM533.016 951.087C534.311 952.178 535.47 954.155 536.151 956.336C537.106 959.335 541.263 988.234 541.263 991.71C541.263 992.323 542.013 993.755 542.967 994.845C543.922 996.004 544.876 997.776 545.08 998.935L545.489 1000.91L539.082 1001.73C535.606 1002.14 531.789 1002.68 530.631 1002.89C528.654 1003.23 528.45 1003.09 528.109 1001.12C527.768 999.753 528.041 998.253 528.722 996.89C529.676 994.981 529.676 993.686 528.381 981.077C526.337 961.584 525.655 958.857 522.861 958.857C522.247 958.857 520.816 959.539 519.793 960.357C518.089 961.72 517.953 962.061 518.294 965.264C518.567 967.173 519.248 974.534 519.862 981.691C520.748 992.732 521.157 995.05 522.588 997.708C525.587 1003.3 525.382 1003.43 513.864 1004.25L507.184 1004.66V1002.21C507.184 1000.84 507.593 999.003 508.138 998.185C509.024 996.89 509.024 994.913 508.206 983.054C507.048 966.287 506.639 962.879 505.685 961.788C504.594 960.425 501.391 960.698 500.027 962.265C498.869 963.56 498.869 964.515 499.618 980.123C500.368 994.573 500.641 996.89 501.8 998.526C502.481 999.548 503.095 1001.46 503.095 1002.82V1005.21H497.71C494.779 1005.21 490.962 1005.41 489.19 1005.61L486.055 1006.09V1003.5C486.055 1002 486.6 1000.3 487.418 999.207C488.577 997.776 488.781 996.822 488.509 993.686C488.304 991.574 487.963 983.599 487.759 975.897C487.35 963.697 487.145 961.652 485.987 959.812C485.305 958.653 484.692 956.745 484.692 955.518C484.692 953.746 484.964 953.405 486.259 953.405C487.145 953.405 490.213 953.2 493.075 952.996L498.323 952.519V954.359C498.323 956.676 499.005 956.608 501.391 954.086C505.412 949.929 511.478 949.997 515.022 954.223L516.794 956.336L518.907 953.746C522.792 949.043 529.199 947.816 533.016 951.087ZM423.962 951.019C428.188 952.451 430.71 954.495 432.346 957.699C434.05 961.107 434.186 966.559 432.823 985.712L432.005 997.912L433.777 999.412C436.435 1001.46 436.163 1003.71 433.232 1004.93C428.597 1006.84 424.167 1005.89 422.054 1002.41C421.304 1001.18 420.623 1000.64 420.282 1001.05C420.077 1001.46 418.578 1002.48 417.078 1003.23C413.602 1005 407.877 1004.8 405.083 1002.68C400.925 999.684 399.221 992.46 401.129 985.985C403.174 978.76 407.059 975.011 415.988 971.399L421.645 969.149L422.054 965.878C422.531 962.265 422.19 958.994 421.1 957.631C420.759 957.222 419.6 956.813 418.578 956.813C416.738 956.813 416.669 956.949 416.738 960.016C416.738 962.674 416.465 963.424 414.829 964.855C413.262 966.15 412.375 966.423 410.467 966.082C409.104 965.878 407.468 965.06 406.855 964.242C404.265 961.175 406.037 954.018 409.854 951.973C413.466 949.997 419.873 949.52 423.962 951.019Z" fill="black"/>
<path d="M704.844 870.456C703.89 870.865 703.072 871.206 703.003 871.274C702.731 871.41 715.817 897.038 716.499 897.787C717.453 898.878 720.588 896.152 721.952 893.084C723.11 890.563 723.178 889.608 722.565 886.814C721.747 883.27 717.862 875.636 715.545 873.114C712.478 869.774 708.524 868.752 704.844 870.456Z" fill="black"/>
<path d="M637.64 935.411C635.527 937.456 635.663 938.478 638.866 948.975C644.728 968.195 646.909 971.671 651.748 969.081C653.18 968.263 653.384 966.287 652.362 963.22C646.296 945.021 642.547 934.593 641.934 934.184C640.502 933.298 639.412 933.571 637.64 935.411Z" fill="black"/>
<path d="M558.235 953.2C557.349 955.45 557.689 958.38 560.688 975.284C563.21 989.665 563.96 991.846 566.55 992.119C570.571 992.596 570.776 990.21 568.118 974.193C564.914 954.632 563.824 951.36 560.688 951.36C559.393 951.36 558.78 951.905 558.235 953.2Z" fill="black"/>
<path d="M417.147 978.828C411.08 982.849 409.717 995.663 415.374 995.663C418.714 995.663 419.737 993.55 420.623 985.303C420.963 981.827 421.304 978.555 421.304 978.078C421.304 976.851 419.737 977.056 417.147 978.828Z" fill="black"/>
</svg>
